# xmcd
#
# Track frame offsets:
#	150
#	19528
#	41121
#	59714
#	76330
#	93689
#	108217
#	127670
#	144586
#	158030
#
# Disc length: 2340 seconds
#
# Revision: 1
# Processed by: cddbd v1.5.2PL0 Copyright (c) Steve Scherf et al.
# Submitted via: audiograbber 1.83.01
#
DISCID=7c09220a
DTITLE=Reba McEntire - BS9917
DYEAR=2008
DGENRE=Karaoke Country
TTITLE0=Everything That You Want
TTITLE1=Fancy
TTITLE2=For Yourself
TTITLE3=For My Broken Heart
TTITLE4=Rumor Has It
TTITLE5=It's Your Call
TTITLE6=Silly Me
TTITLE7=Somebody Should Leave
TTITLE8=Sunday Kind Of Love
TTITLE9=Till You Love Me
EXTD=Backstage Karaoke
EXTT0=
EXTT1=
EXTT2=
EXTT3=
EXTT4=
EXTT5=
EXTT6=
EXTT7=
EXTT8=
EXTT9=
PLAYORDER=
